<?xml version="1.0" encoding="utf-8"?>
<!DOCTYPE svg PUBLIC "-//W3C//DTD SVG 1.1//EN" "http://www.w3.org/Graphics/SVG/1.1/DTD/svg11.dtd">
<svg version="1.1" id="Layer_1" xmlns="http://www.w3.org/2000/svg" xmlns:xlink="http://www.w3.org/1999/xlink" x="0px" y="0px"
	 width="226.191px" height="215.608px" viewBox="0 0 226.191 215.608" enable-background="new 0 0 226.191 215.608"
	 xml:space="preserve">
<path opacity="0.3" d="M222.417,185.788c-1.464-3.13-3.442-6.13-5.965-9.094c-2.521-2.964-5.826-5.173-9.903-6.627
	c-1.933-0.681-4.454-1.638-7.565-2.908c-3.093-1.271-6.59-2.688-10.455-4.271c-3.885-1.62-7.989-3.332-12.307-5.173
	c-4.307-1.859-8.578-3.682-12.803-5.54c-4.215-1.842-8.311-3.646-12.287-5.376c-3.967-1.748-7.52-3.313-10.611-4.657v-17.027
	c0-0.754,0.239-2.006,0.718-3.718c0.487-1.675,1.021-3.442,1.602-5.302c0.681-2.135,1.408-4.418,2.19-6.815
	c0.623-1.167,1.212-2.371,1.776-3.601c0.85,0.243,1.52,0.246,1.52,0.246h10.092h5.047h5.046l-0.024-49.959
	c0.093-0.951,2.158-23.496-12.665-39.876c-9.688-10.708-24.098-16.134-42.818-16.134S79.874,5.382,70.19,16.09
	C55.362,32.47,57.432,55.015,57.501,55.464l-0.005,50.461h5.051h5.041h10.097c0,0,2.085-0.008,3.576-1.352
	c0.783,1.825,1.619,3.586,2.522,5.269c0.773,2.241,1.458,4.321,2.034,6.254c0.488,1.657,0.944,3.277,1.386,4.878
	c0.433,1.602,0.754,2.798,0.943,3.571v16.586c-3.005,1.344-6.489,2.89-10.479,4.656c-3.977,1.749-8.192,3.572-12.656,5.523
	c-4.45,1.933-8.942,3.865-13.447,5.816c-4.51,1.933-8.804,3.755-12.876,5.449c-4.073,1.693-7.755,3.202-11.059,4.51
	c-3.295,1.325-5.964,2.301-8.003,2.981c-3.977,1.454-7.221,3.663-9.742,6.627c-2.522,2.964-4.515,5.964-5.964,9.094
	C2.177,189.376,0.87,193.151,0,197.126v18.481h226.191v-18.481C225.417,193.151,224.148,189.376,222.417,185.788z M114.327,17.186
	c-5.527,0-10.686,0.958-15.486,2.909c-4.804,1.942-8.997,5.043-12.582,9.314c-3.59,4.261-6.429,9.783-8.514,16.585
	c-1.696,5.512-2.692,12.045-3.009,19.562c-2.306,0-4.936,0-7.164,0l-0.004-10.595c-0.02-0.188-1.75-19.002,10.102-32.1
	c7.692-8.5,19.583-12.812,35.333-12.812c15.71,0,27.582,4.287,35.279,12.749c11.826,13.004,10.176,31.986,10.136,32.667v10.092
	c-1.4,0-2.959,0-4.495,0c-0.313-7.605-1.307-14.223-3.002-19.783c-2.099-6.839-4.952-12.37-8.588-16.595
	c-3.645-4.215-7.851-7.262-12.655-9.158C124.875,18.125,119.766,17.186,114.327,17.186z"/>
</svg>
